<?xml version="1.0" standalone="no"?>
<!DOCTYPE svg PUBLIC "-//W3C//DTD SVG 20010904//EN"
 "http://www.w3.org/TR/2001/REC-SVG-20010904/DTD/svg10.dtd">
<svg version="1.0" xmlns="http://www.w3.org/2000/svg"
 width="100.000000pt" height="100.000000pt" viewBox="0 0 100.000000 100.000000"
 preserveAspectRatio="xMidYMid meet">

<g transform="translate(0.000000,100.000000) scale(0.100000,-0.100000)"
fill="#000000" stroke="none">
<path d="M290 940 c13 -9 13 -10 0 -10 -11 0 -15 -13 -15 -55 0 -62 10 -75 13
-19 3 41 24 78 38 66 4 -4 2 1 -5 11 -7 9 -21 17 -30 17 -14 0 -14 -2 -1 -10z"/>
<path d="M643 935 c0 -8 4 -12 9 -9 5 3 6 10 3 15 -9 13 -12 11 -12 -6z"/>
<path d="M614 894 c22 -13 26 -18 15 -25 -9 -6 -10 -9 -2 -9 20 0 24 18 7 34
-8 9 -23 16 -32 16 -11 -1 -7 -6 12 -16z"/>
<path d="M523 892 c10 -15 -3 -43 -17 -35 -8 4 -8 2 1 -7 6 -7 16 -9 22 -6 14
9 14 43 -1 52 -6 4 -8 3 -5 -4z"/>
<path d="M724 886 c4 -10 1 -25 -5 -32 -6 -8 -9 -14 -5 -14 4 0 -3 -19 -14
-42 -12 -24 -14 -34 -6 -23 9 11 20 26 27 33 6 7 8 19 6 26 -3 8 -1 18 5 24 7
7 6 16 -2 29 -11 17 -11 17 -6 -1z"/>
<path d="M580 870 c0 -5 4 -10 9 -10 6 0 13 5 16 10 3 6 -1 10 -9 10 -9 0 -16
-4 -16 -10z"/>
<path d="M301 854 c0 -11 3 -14 6 -6 3 7 2 16 -1 19 -3 4 -6 -2 -5 -13z"/>
<path d="M555 850 c-3 -5 -2 -17 3 -26 6 -11 11 -13 16 -5 4 6 2 11 -4 11 -7
0 -10 7 -6 15 6 17 0 20 -9 5z"/>
<path d="M535 810 c-3 -5 -1 -10 4 -10 6 0 11 5 11 10 0 6 -2 10 -4 10 -3 0
-8 -4 -11 -10z"/>
<path d="M303 760 c0 -25 2 -35 4 -22 2 12 2 32 0 45 -2 12 -4 2 -4 -23z"/>
<path d="M741 795 c0 -5 6 -21 14 -35 8 -14 14 -20 14 -15 0 6 -6 21 -14 35
-8 14 -14 21 -14 15z"/>
<path d="M550 770 c0 -5 5 -10 11 -10 5 0 7 5 4 10 -3 6 -8 10 -11 10 -2 0 -4
-4 -4 -10z"/>
<path d="M716 767 c3 -10 9 -15 12 -12 3 3 0 11 -7 18 -10 9 -11 8 -5 -6z"/>
<path d="M282 740 c0 -14 2 -19 5 -12 2 6 2 18 0 25 -3 6 -5 1 -5 -13z"/>
<path d="M695 731 c-3 -6 -2 -11 4 -11 6 0 8 -6 5 -14 -3 -8 0 -17 7 -22 7 -4
10 -3 5 4 -3 5 -2 12 3 14 5 1 4 11 -4 21 -8 12 -15 14 -20 8z"/>
<path d="M284 535 c0 -93 2 -133 3 -88 2 45 2 122 0 170 -1 48 -3 12 -3 -82z"/>
<path d="M734 689 c-3 -6 -1 -16 5 -22 9 -9 11 -8 6 6 -14 34 13 16 29 -20 12
-29 15 -32 14 -13 -3 25 -26 60 -40 60 -4 0 -10 -5 -14 -11z"/>
<path d="M680 686 c0 -2 8 -10 18 -17 15 -13 16 -12 3 4 -13 16 -21 21 -21 13z"/>
<path d="M680 640 c-8 -5 -12 -12 -9 -15 4 -3 12 1 19 10 14 17 11 19 -10 5z"/>
<path d="M776 593 c-6 -14 -5 -15 5 -6 7 7 10 15 7 18 -3 3 -9 -2 -12 -12z"/>
<path d="M564 565 c-1 -30 1 -32 15 -17 12 11 13 16 3 20 -7 2 -10 8 -7 12 3
5 2 11 -2 13 -5 3 -8 -10 -9 -28z"/>
<path d="M645 552 c-9 -9 6 -21 20 -16 10 4 12 0 8 -15 -3 -14 -1 -21 8 -21
11 0 11 -2 -1 -10 -8 -5 -10 -10 -5 -10 6 0 3 -5 -5 -11 -12 -9 -12 -10 4 -5
11 4 23 1 28 -6 5 -8 6 -2 2 16 -5 19 -2 31 7 37 7 4 10 11 6 16 -5 4 -12 1
-17 -7 -5 -8 -12 -11 -16 -7 -4 3 -1 14 7 24 9 11 10 14 2 9 -7 -4 -13 -3 -13
2 0 9 -26 12 -35 4z"/>
<path d="M595 540 c-3 -5 -1 -10 4 -10 6 0 11 5 11 10 0 6 -2 10 -4 10 -3 0
-8 -4 -11 -10z"/>
<path d="M580 499 c-12 -7 -11 -9 5 -7 40 3 56 -2 49 -14 -5 -9 -2 -8 9 1 10
8 16 15 15 16 -12 9 -67 12 -78 4z"/>
<path d="M692 375 c0 -16 2 -22 5 -12 2 9 2 23 0 30 -3 6 -5 -1 -5 -18z"/>
<path d="M302 315 c0 -16 2 -22 5 -12 2 9 2 23 0 30 -3 6 -5 -1 -5 -18z"/>
<path d="M522 318 c2 -7 -4 -12 -14 -10 -9 1 -19 -2 -23 -8 -4 -6 1 -7 11 -3
12 4 15 3 10 -5 -4 -7 -3 -12 2 -12 6 0 12 7 16 15 3 8 10 15 15 15 6 0 8 -7
5 -15 -4 -8 -4 -15 -1 -15 16 0 13 31 -4 40 -15 8 -19 8 -17 -2z"/>
<path d="M282 248 c-1 -20 -5 -45 -8 -55 -5 -17 -5 -17 6 0 6 9 9 34 7 55 l-4
37 -1 -37z"/>
<path d="M301 234 c0 -11 3 -14 6 -6 3 7 2 16 -1 19 -3 4 -6 -2 -5 -13z"/>
<path d="M517 192 c-10 -2 -16 -9 -14 -15 6 -18 24 -19 31 -1 8 20 6 21 -17
16z"/>
<path d="M345 180 c6 -10 4 -12 -7 -7 -18 6 -18 -8 0 -38 11 -19 13 -19 26 -2
7 9 19 17 27 17 12 0 12 -2 0 -9 -8 -5 -11 -16 -8 -24 4 -11 -2 -14 -26 -13
-19 2 -31 7 -29 14 1 7 -2 12 -8 12 -16 0 -12 -18 10 -40 18 -18 24 -18 22 1
-1 4 9 6 22 5 12 0 23 -6 23 -13 0 -6 -7 -9 -16 -6 -14 4 -14 3 -1 -5 19 -14
33 -4 27 19 -3 10 -1 22 4 25 5 3 5 14 -2 25 -8 16 -17 19 -36 14 -20 -5 -24
-3 -20 9 4 9 1 18 -5 22 -7 5 -8 2 -3 -6z m6 -37 c13 -16 12 -17 -3 -4 -10 7
-18 15 -18 17 0 8 8 3 21 -13z m59 -17 c0 -3 -4 -8 -10 -11 -5 -3 -10 -1 -10
4 0 6 5 11 10 11 6 0 10 -2 10 -4z"/>
<path d="M686 175 c-18 -18 -21 -29 -6 -20 6 3 7 -1 4 -9 -3 -9 -10 -14 -14
-11 -5 3 -11 2 -14 -3 -4 -7 22 -8 67 -3 12 2 8 38 -7 50 -11 9 -18 8 -30 -4z
m27 -8 c3 -8 2 -20 -3 -26 -5 -9 -7 -4 -7 13 0 29 2 32 10 13z"/>
<path d="M291 164 c0 -11 3 -14 6 -6 3 7 2 16 -1 19 -3 4 -6 -2 -5 -13z"/>
<path d="M742 155 c0 -16 2 -22 5 -12 2 9 2 23 0 30 -3 6 -5 -1 -5 -18z"/>
<path d="M557 161 c6 -7 9 -20 6 -27 -3 -8 -3 -14 0 -14 14 0 14 30 -1 41 -14
11 -15 11 -5 0z"/>
<path d="M505 118 c4 -13 13 -28 21 -34 7 -6 12 -13 9 -16 -3 -2 2 -5 10 -5
11 0 12 4 5 11 -12 12 -13 29 -1 22 5 -4 7 3 4 14 -3 11 -9 17 -14 14 -5 -3
-7 -9 -4 -14 3 -5 0 -12 -6 -16 -7 -4 -9 -3 -5 4 3 6 2 13 -4 17 -6 4 -8 11
-5 16 4 5 1 9 -5 9 -7 0 -9 -9 -5 -22z"/>
<path d="M736 105 c-11 -8 -15 -15 -9 -15 6 0 16 7 23 15 16 19 11 19 -14 0z"/>
<path d="M578 103 c7 -3 16 -2 19 1 4 3 -2 6 -13 5 -11 0 -14 -3 -6 -6z"/>
<path d="M637 103 c-10 -9 -9 -23 2 -23 5 0 11 7 15 15 5 15 -5 20 -17 8z"/>
<path d="M450 90 c-13 -8 -12 -10 3 -10 9 0 17 5 17 10 0 12 -1 12 -20 0z"/>
</g>
</svg>
